<?xml version="1.0" encoding="iso-8859-1"?>
<!-- Generator: Adobe Illustrator 16.0.0, SVG Export Plug-In . SVG Version: 6.00 Build 0)  -->
<!DOCTYPE svg PUBLIC "-//W3C//DTD SVG 1.1//EN" "http://www.w3.org/Graphics/SVG/1.1/DTD/svg11.dtd">
<svg version="1.1" id="Capa_1" xmlns="http://www.w3.org/2000/svg" xmlns:xlink="http://www.w3.org/1999/xlink" x="0px" y="0px"
	 width="49.037px" height="49.037px" viewBox="0 0 49.037 49.037" style="enable-background:new 0 0 49.037 49.037;"
	 xml:space="preserve">
<g>
	<path d="M37.125,25.872c-1.074-2.167-3.085-4.526-4.416-6.087c-0.291-0.342-0.555-0.651-0.774-0.918
		c-1.15-1.394-2.016-2.771-2.371-3.778c-0.075-0.216-0.147-0.429-0.218-0.639V4.353c0-2.4-1.952-4.353-4.353-4.353
		S20.64,1.953,20.64,4.353l0.002,9.707c-0.324,3.378-0.627,6.646-0.702,7.462c-2.174,0.336-4.708,1.095-6.361,2.785
		c-0.008,0.008-0.005,0.021-0.012,0.029c-0.918,0.756-1.493,1.834-1.455,3.025c0.046,1.436,0.943,2.648,2.248,3.3
		c-1.805,0.597-3.077,2.095-3.023,3.819c0.058,1.824,1.547,3.301,3.547,3.699c-1.415,0.609-2.372,1.769-2.331,3.08
		c0.058,1.801,1.931,3.211,4.279,3.248c-0.122,0.063-0.249,0.123-0.36,0.195c-0.777,0.508-1.192,1.184-1.17,1.9
		c0.044,1.388,1.692,2.434,3.834,2.434l9.866-0.311c0.995-0.031,1.874-0.293,2.55-0.693c0.008-0.003,0.016-0.002,0.023-0.006
		c0.185-0.098,4.522-2.449,5.73-8.645c0.345-1.768-0.548-4.562-0.771-5.222C36.882,33.305,38.573,28.797,37.125,25.872z
		 M12.862,27.336c-0.057-1.769,1.559-3.26,3.601-3.324l11.002-0.35l0.139-0.002c2.001,0,3.611,1.357,3.666,3.092
		c0.027,0.848-0.327,1.658-0.996,2.284c-0.604,0.567-1.405,0.906-2.273,1c-0.124-0.008-0.243-0.03-0.369-0.03l-11.715,0.369
		C14.208,30.129,12.912,28.887,12.862,27.336z M12.086,34.456c-0.056-1.769,1.655-3.262,3.814-3.329l0.031-0.002
		c0.197,0.023,0.392,0.053,0.597,0.053l11.163-0.354c0.111-0.003,0.217-0.027,0.325-0.038c1.925,0.156,3.425,1.433,3.477,3.054
		c0.026,0.844-0.347,1.654-1.051,2.281c-0.724,0.645-1.704,1.018-2.764,1.051l-11.575,0.367l-0.152,0.003
		C13.84,37.541,12.141,36.188,12.086,34.456z M13.303,41.235c-0.046-1.457,1.578-2.696,3.619-2.763l11.002-0.35l0.166-0.003
		c1.952,0,3.576,1.136,3.62,2.528c0.046,1.457-1.577,2.697-3.618,2.762L17.09,43.76l-0.166,0.004
		C14.938,43.764,13.349,42.652,13.303,41.235z M28.979,47.977l-9.664,0.307l-0.179,0.003c-1.671,0-3.055-0.767-3.084-1.706
		c-0.014-0.447,0.281-0.891,0.83-1.25c0.607-0.396,1.431-0.63,2.319-0.658l9.664-0.308l0.175-0.003c1.673,0,3.059,0.766,3.089,1.707
		C32.159,47.047,30.717,47.922,28.979,47.977z M36.571,39.238c-0.671,3.436-2.39,5.628-3.7,6.861c0-0.019,0.007-0.035,0.006-0.055
		c-0.037-1.143-1.172-2.043-2.766-2.33c1.425-0.607,2.389-1.771,2.348-3.089c-0.046-1.448-1.271-2.634-2.966-3.067
		c0.537-0.209,1.028-0.504,1.447-0.877c0.874-0.777,1.337-1.795,1.303-2.864c-0.049-1.544-1.128-2.837-2.67-3.44
		c0.443-0.203,0.858-0.462,1.213-0.794c0.829-0.774,1.267-1.79,1.232-2.856c-0.066-2.141-2.008-3.816-4.416-3.816L16.5,23.26
		c3.315-1.45,7.553-1.227,7.606-1.224c0.206,0.016,0.384-0.145,0.396-0.352c0.013-0.207-0.145-0.384-0.352-0.397
		c-0.131-0.008-1.585-0.085-3.449,0.132c0.096-1.039,0.382-4.122,0.688-7.323V4.354c0-1.987,1.616-3.603,3.603-3.603
		c1.986,0,3.603,1.616,3.603,3.603v10.157c0,0.04,0.007,0.08,0.02,0.118c0.076,0.233,0.156,0.469,0.241,0.71
		c0.525,1.488,1.792,3.149,2.5,4.006c0.223,0.269,0.487,0.582,0.782,0.927c1.308,1.533,3.281,3.85,4.314,5.934
		c1.417,2.863-0.644,7.747-0.663,7.796c-0.037,0.088-0.04,0.186-0.008,0.274C35.793,34.307,36.917,37.467,36.571,39.238z"/>
</g>
<g>
</g>
<g>
</g>
<g>
</g>
<g>
</g>
<g>
</g>
<g>
</g>
<g>
</g>
<g>
</g>
<g>
</g>
<g>
</g>
<g>
</g>
<g>
</g>
<g>
</g>
<g>
</g>
<g>
</g>
</svg>
